<svg width="326" height="56" viewBox="0 0 326 56" fill="none" xmlns="http://www.w3.org/2000/svg">
<path fill-rule="evenodd" clip-rule="evenodd" d="M52.0817 11.8466C49.0128 4.90102 42.125 0 34.0605 0C25.9782 0 19.0406 4.87574 15.9823 11.846C6.87155 13.6071 0.000549316 21.653 0.000549316 31.3013C0.000549316 38.5252 3.85735 44.8235 9.61908 48.283L9.62311 56L22.0156 51.1062H48.2692C59.1791 51.1062 68.0005 42.2395 68.0005 31.3013C68.0005 21.7053 61.119 13.6653 52.0817 11.8466ZM38.134 13H26.0005C25.4483 13 25.0005 13.4477 25.0005 14V29H16.0005C15.4483 29 15.0005 29.4477 15.0005 30V36H25.0005V46H31.089C31.6413 46 32.089 45.5523 32.089 45V36H37.7371C44.0005 36 48.0005 32.7942 48.0005 26.6238V22.3296C48.0005 16.1591 44.0005 13 38.134 13ZM37.0005 29C40.2709 29 41.0005 27.3694 41.0005 25V24C41.0005 21.6306 40.122 20 37.0005 20H32.0005V29H37.0005Z" fill="#00BAF2"/>
<mask id="mask0" mask-type="alpha" maskUnits="userSpaceOnUse" x="0" y="0" width="69" height="56">
<path fill-rule="evenodd" clip-rule="evenodd" d="M52.0817 11.8466C49.0128 4.90102 42.125 0 34.0605 0C25.9782 0 19.0406 4.87574 15.9823 11.846C6.87155 13.6071 0.000549316 21.653 0.000549316 31.3013C0.000549316 38.5252 3.85735 44.8235 9.61908 48.283L9.62311 56L22.0156 51.1062H48.2692C59.1791 51.1062 68.0005 42.2395 68.0005 31.3013C68.0005 21.7053 61.119 13.6653 52.0817 11.8466ZM38.134 13H26.0005C25.4483 13 25.0005 13.4477 25.0005 14V29H16.0005C15.4483 29 15.0005 29.4477 15.0005 30V36H25.0005V46H31.089C31.6413 46 32.089 45.5523 32.089 45V36H37.7371C44.0005 36 48.0005 32.7942 48.0005 26.6238V22.3296C48.0005 16.1591 44.0005 13 38.134 13ZM37.0005 29C40.2709 29 41.0005 27.3694 41.0005 25V24C41.0005 21.6306 40.122 20 37.0005 20H32.0005V29H37.0005Z" fill="white"/>
</mask>
<g mask="url(#mask0)">
<path fill-rule="evenodd" clip-rule="evenodd" d="M0.000549316 0H68.0005V56H0.000549316V0Z" fill="#00BAF2"/>
</g>
<path fill-rule="evenodd" clip-rule="evenodd" d="M161.001 43.8061C163.829 45.1326 167.849 46 171.671 46C181.646 46 183.78 42.6838 183.779 35.9489C183.779 29.2653 183.333 27.4795 174.4 25.2857C169.189 24.0102 169.04 23.9591 169.04 20.6938C169.04 18.1939 169.784 17.5816 173.109 17.5816C176.087 17.5816 178.519 17.8876 182.291 18.551L183.035 12.1224C179.363 11.3062 175.889 11 173.01 11C163.929 11 161.596 13.7039 161.596 20.4897C161.596 27.8367 162.787 29.4692 170.777 31.255C176.187 32.4795 176.336 32.8367 176.336 35.898C176.336 38.7549 175.591 39.5203 171.77 39.5203C168.345 39.5203 165.268 38.8571 162.241 37.8878L161.001 43.8061ZM111.001 12H118.445V38.4347H131.546V45H111.001V12ZM158.327 12V35.9299C158.327 40.9156 155.2 46 145.87 46C136.54 46 133.414 40.9156 133.414 35.9299V12H140.858V35.2388C140.858 37.9044 142.148 39.4347 145.87 39.4347C149.593 39.4347 150.883 37.9045 150.883 35.2388V12H158.327ZM97.134 12H84.0005V28H74.0005V35H84.0005V45H92.089V35H96.7371C104.764 35 108.001 31.7942 108.001 25.6238V21.3296C108.001 15.1591 105.16 12 97.134 12ZM97.0005 28C100.271 28 100.701 26.3694 100.701 24V23C100.701 20.6306 100.122 19 97.0005 19H92.0005V28H97.0005ZM192.476 36.1019C192.476 41.4081 194.744 43.2957 200.711 43.2957C202.832 43.2957 205.791 43.0406 208.01 42.6325L208.355 45.2346C205.889 45.7449 202.832 46 200.465 46C192.525 46 189.566 42.4796 189.566 36.1532V20.8468C189.566 14.5203 192.525 11 200.465 11C202.832 11 205.889 11.2551 208.355 11.7654L208.01 14.3673C205.79 13.9592 202.832 13.7041 200.711 13.7041C194.744 13.7041 192.476 15.5919 192.476 20.8979V36.1019ZM229.704 42.3837H214.91V12H212.001V45H229.704V42.3837ZM242.887 46C234.454 46 231.396 41.8536 231.396 36.2262V20.7738C231.396 15.1464 234.454 11 242.887 11C251.319 11 254.377 15.1464 254.377 20.7738V36.2262C254.377 41.8536 251.319 46 242.887 46ZM251.467 20.8725V36.1963C251.467 40.8857 249.199 43.4525 242.886 43.4525C236.574 43.4525 234.306 40.8857 234.306 36.1963V20.8725C234.306 16.1829 236.574 13.6161 242.886 13.6161C249.199 13.6161 251.467 16.1831 251.467 20.8725ZM279.685 12V36.1768C279.685 41.7547 276.332 46 268.343 46C260.354 46 257.001 41.7547 257.001 36.1768V12H259.91V36.1768C259.91 40.7675 262.82 43.3837 268.343 43.3837C273.866 43.3837 276.776 40.7675 276.776 36.1768V12H279.685ZM304.437 21.7245C304.437 16.1464 302.169 12 294.18 12H283.331V45H294.18C302.169 45 304.437 40.8534 304.437 35.2755V21.7245ZM286.241 42.3999H294.229C299.753 42.3999 301.528 40.0893 301.528 35.3999V21.7646C301.528 17.0752 299.753 14.8044 294.229 14.8044H286.241V42.3999ZM307.001 44.3673C309.749 45.4897 313.27 46 316.067 46C324.216 46 326.001 42.6326 326.001 37.0719C326.001 30.643 325.518 29.3677 317.079 27.1227C310.328 25.3369 310.183 25.082 310.183 19.5716C310.183 15.3368 311.051 13.7042 317.417 13.7042C319.925 13.7042 322.914 14.1633 325.277 14.7245L325.615 12.1735C323.445 11.5103 320.118 11 317.321 11C309.267 11 307.338 13.908 307.338 19.4694C307.338 26.3062 308.206 27.7858 315.97 29.6736C323.107 31.4083 323.156 31.9693 323.156 37.2247C323.156 41.5613 321.661 43.296 316.163 43.296C313.366 43.296 310.424 42.8368 307.531 41.9185L307.001 44.3673Z" fill="#758196"/>
<mask id="mask1" mask-type="alpha" maskUnits="userSpaceOnUse" x="74" y="11" width="253" height="35">
<path fill-rule="evenodd" clip-rule="evenodd" d="M161.001 43.8061C163.829 45.1326 167.849 46 171.671 46C181.646 46 183.78 42.6838 183.779 35.9489C183.779 29.2653 183.333 27.4795 174.4 25.2857C169.189 24.0102 169.04 23.9591 169.04 20.6938C169.04 18.1939 169.784 17.5816 173.109 17.5816C176.087 17.5816 178.519 17.8876 182.291 18.551L183.035 12.1224C179.363 11.3062 175.889 11 173.01 11C163.929 11 161.596 13.7039 161.596 20.4897C161.596 27.8367 162.787 29.4692 170.777 31.255C176.187 32.4795 176.336 32.8367 176.336 35.898C176.336 38.7549 175.591 39.5203 171.77 39.5203C168.345 39.5203 165.268 38.8571 162.241 37.8878L161.001 43.8061ZM111.001 12H118.445V38.4347H131.546V45H111.001V12ZM158.327 12V35.9299C158.327 40.9156 155.2 46 145.87 46C136.54 46 133.414 40.9156 133.414 35.9299V12H140.858V35.2388C140.858 37.9044 142.148 39.4347 145.87 39.4347C149.593 39.4347 150.883 37.9045 150.883 35.2388V12H158.327ZM97.134 12H84.0005V28H74.0005V35H84.0005V45H92.089V35H96.7371C104.764 35 108.001 31.7942 108.001 25.6238V21.3296C108.001 15.1591 105.16 12 97.134 12ZM97.0005 28C100.271 28 100.701 26.3694 100.701 24V23C100.701 20.6306 100.122 19 97.0005 19H92.0005V28H97.0005ZM192.476 36.1019C192.476 41.4081 194.744 43.2957 200.711 43.2957C202.832 43.2957 205.791 43.0406 208.01 42.6325L208.355 45.2346C205.889 45.7449 202.832 46 200.465 46C192.525 46 189.566 42.4796 189.566 36.1532V20.8468C189.566 14.5203 192.525 11 200.465 11C202.832 11 205.889 11.2551 208.355 11.7654L208.01 14.3673C205.79 13.9592 202.832 13.7041 200.711 13.7041C194.744 13.7041 192.476 15.5919 192.476 20.8979V36.1019ZM229.704 42.3837H214.91V12H212.001V45H229.704V42.3837ZM242.887 46C234.454 46 231.396 41.8536 231.396 36.2262V20.7738C231.396 15.1464 234.454 11 242.887 11C251.319 11 254.377 15.1464 254.377 20.7738V36.2262C254.377 41.8536 251.319 46 242.887 46ZM251.467 20.8725V36.1963C251.467 40.8857 249.199 43.4525 242.886 43.4525C236.574 43.4525 234.306 40.8857 234.306 36.1963V20.8725C234.306 16.1829 236.574 13.6161 242.886 13.6161C249.199 13.6161 251.467 16.1831 251.467 20.8725ZM279.685 12V36.1768C279.685 41.7547 276.332 46 268.343 46C260.354 46 257.001 41.7547 257.001 36.1768V12H259.91V36.1768C259.91 40.7675 262.82 43.3837 268.343 43.3837C273.866 43.3837 276.776 40.7675 276.776 36.1768V12H279.685ZM304.437 21.7245C304.437 16.1464 302.169 12 294.18 12H283.331V45H294.18C302.169 45 304.437 40.8534 304.437 35.2755V21.7245ZM286.241 42.3999H294.229C299.753 42.3999 301.528 40.0893 301.528 35.3999V21.7646C301.528 17.0752 299.753 14.8044 294.229 14.8044H286.241V42.3999ZM307.001 44.3673C309.749 45.4897 313.27 46 316.067 46C324.216 46 326.001 42.6326 326.001 37.0719C326.001 30.643 325.518 29.3677 317.079 27.1227C310.328 25.3369 310.183 25.082 310.183 19.5716C310.183 15.3368 311.051 13.7042 317.417 13.7042C319.925 13.7042 322.914 14.1633 325.277 14.7245L325.615 12.1735C323.445 11.5103 320.118 11 317.321 11C309.267 11 307.338 13.908 307.338 19.4694C307.338 26.3062 308.206 27.7858 315.97 29.6736C323.107 31.4083 323.156 31.9693 323.156 37.2247C323.156 41.5613 321.661 43.296 316.163 43.296C313.366 43.296 310.424 42.8368 307.531 41.9185L307.001 44.3673Z" fill="white"/>
</mask>
<g mask="url(#mask1)">
<path fill-rule="evenodd" clip-rule="evenodd" d="M74.0005 0H326.001V56H74.0005V0Z" fill="#00BAF2"/>
</g>
</svg>
